<mxfile host="app.diagrams.net" agent="Mozilla/5.0 (Windows NT 10.0; Win64; x64) AppleWebKit/537.36 (KHTML, like Gecko) Chrome/130.0.0.0 Safari/537.36" version="24.8.3">
  <diagram name="Página-1" id="fUgZCihx2eRsSx5c1O6x">
    <mxGraphModel dx="989" dy="538" grid="1" gridSize="10" guides="1" tooltips="1" connect="1" arrows="1" fold="1" page="1" pageScale="1" pageWidth="827" pageHeight="1169" math="0" shadow="0">
      <root>
        <mxCell id="0" />
        <mxCell id="1" parent="0" />
        <mxCell id="Q0xsEToSXDLaV0YUPqp3-14" style="edgeStyle=orthogonalEdgeStyle;rounded=0;orthogonalLoop=1;jettySize=auto;html=1;entryX=0;entryY=0.5;entryDx=0;entryDy=0;" edge="1" parent="1" source="Q0xsEToSXDLaV0YUPqp3-1" target="Q0xsEToSXDLaV0YUPqp3-13">
          <mxGeometry relative="1" as="geometry" />
        </mxCell>
        <mxCell id="Q0xsEToSXDLaV0YUPqp3-1" value="inicio" style="ellipse;whiteSpace=wrap;html=1;" vertex="1" parent="1">
          <mxGeometry x="40" y="40" width="80" height="80" as="geometry" />
        </mxCell>
        <mxCell id="Q0xsEToSXDLaV0YUPqp3-9" value="List" style="swimlane;fontStyle=0;childLayout=stackLayout;horizontal=1;startSize=30;horizontalStack=0;resizeParent=1;resizeParentMax=0;resizeLast=0;collapsible=1;marginBottom=0;whiteSpace=wrap;html=1;" vertex="1" parent="1">
          <mxGeometry x="320" y="20" width="140" height="210" as="geometry">
            <mxRectangle x="180" y="70" width="60" height="30" as="alternateBounds" />
          </mxGeometry>
        </mxCell>
        <mxCell id="Q0xsEToSXDLaV0YUPqp3-10" value="descrição" style="text;strokeColor=none;fillColor=none;align=left;verticalAlign=middle;spacingLeft=4;spacingRight=4;overflow=hidden;points=[[0,0.5],[1,0.5]];portConstraint=eastwest;rotatable=0;whiteSpace=wrap;html=1;" vertex="1" parent="Q0xsEToSXDLaV0YUPqp3-9">
          <mxGeometry y="30" width="140" height="30" as="geometry" />
        </mxCell>
        <mxCell id="Q0xsEToSXDLaV0YUPqp3-11" value="tipo" style="text;strokeColor=none;fillColor=none;align=left;verticalAlign=middle;spacingLeft=4;spacingRight=4;overflow=hidden;points=[[0,0.5],[1,0.5]];portConstraint=eastwest;rotatable=0;whiteSpace=wrap;html=1;" vertex="1" parent="Q0xsEToSXDLaV0YUPqp3-9">
          <mxGeometry y="60" width="140" height="30" as="geometry" />
        </mxCell>
        <mxCell id="Q0xsEToSXDLaV0YUPqp3-12" value="marca" style="text;strokeColor=none;fillColor=none;align=left;verticalAlign=middle;spacingLeft=4;spacingRight=4;overflow=hidden;points=[[0,0.5],[1,0.5]];portConstraint=eastwest;rotatable=0;whiteSpace=wrap;html=1;" vertex="1" parent="Q0xsEToSXDLaV0YUPqp3-9">
          <mxGeometry y="90" width="140" height="30" as="geometry" />
        </mxCell>
        <mxCell id="Q0xsEToSXDLaV0YUPqp3-16" value="observação" style="text;strokeColor=none;fillColor=none;align=left;verticalAlign=middle;spacingLeft=4;spacingRight=4;overflow=hidden;points=[[0,0.5],[1,0.5]];portConstraint=eastwest;rotatable=0;whiteSpace=wrap;html=1;" vertex="1" parent="Q0xsEToSXDLaV0YUPqp3-9">
          <mxGeometry y="120" width="140" height="30" as="geometry" />
        </mxCell>
        <mxCell id="Q0xsEToSXDLaV0YUPqp3-35" value="data e hora do cadastro" style="text;strokeColor=none;fillColor=none;align=left;verticalAlign=middle;spacingLeft=4;spacingRight=4;overflow=hidden;points=[[0,0.5],[1,0.5]];portConstraint=eastwest;rotatable=0;whiteSpace=wrap;html=1;" vertex="1" parent="Q0xsEToSXDLaV0YUPqp3-9">
          <mxGeometry y="150" width="140" height="30" as="geometry" />
        </mxCell>
        <mxCell id="Q0xsEToSXDLaV0YUPqp3-36" value="usuário que cadastro" style="text;strokeColor=none;fillColor=none;align=left;verticalAlign=middle;spacingLeft=4;spacingRight=4;overflow=hidden;points=[[0,0.5],[1,0.5]];portConstraint=eastwest;rotatable=0;whiteSpace=wrap;html=1;" vertex="1" parent="Q0xsEToSXDLaV0YUPqp3-9">
          <mxGeometry y="180" width="140" height="30" as="geometry" />
        </mxCell>
        <mxCell id="Q0xsEToSXDLaV0YUPqp3-15" style="edgeStyle=orthogonalEdgeStyle;rounded=0;orthogonalLoop=1;jettySize=auto;html=1;" edge="1" parent="1" source="Q0xsEToSXDLaV0YUPqp3-13">
          <mxGeometry relative="1" as="geometry">
            <mxPoint x="320" y="80" as="targetPoint" />
          </mxGeometry>
        </mxCell>
        <mxCell id="Q0xsEToSXDLaV0YUPqp3-13" value="cadastrar ativo&lt;div&gt;(abrir modal)&lt;/div&gt;" style="rounded=0;whiteSpace=wrap;html=1;" vertex="1" parent="1">
          <mxGeometry x="160" y="50" width="120" height="60" as="geometry" />
        </mxCell>
        <mxCell id="Q0xsEToSXDLaV0YUPqp3-21" style="edgeStyle=orthogonalEdgeStyle;rounded=0;orthogonalLoop=1;jettySize=auto;html=1;exitX=0.5;exitY=1;exitDx=0;exitDy=0;entryX=0.5;entryY=0;entryDx=0;entryDy=0;" edge="1" parent="1" source="Q0xsEToSXDLaV0YUPqp3-17" target="Q0xsEToSXDLaV0YUPqp3-20">
          <mxGeometry relative="1" as="geometry" />
        </mxCell>
        <mxCell id="Q0xsEToSXDLaV0YUPqp3-17" value="validação de campos" style="rounded=0;whiteSpace=wrap;html=1;" vertex="1" parent="1">
          <mxGeometry x="520" y="50" width="120" height="60" as="geometry" />
        </mxCell>
        <mxCell id="Q0xsEToSXDLaV0YUPqp3-19" style="edgeStyle=orthogonalEdgeStyle;rounded=0;orthogonalLoop=1;jettySize=auto;html=1;entryX=0;entryY=0.5;entryDx=0;entryDy=0;" edge="1" parent="1" source="Q0xsEToSXDLaV0YUPqp3-11" target="Q0xsEToSXDLaV0YUPqp3-17">
          <mxGeometry relative="1" as="geometry" />
        </mxCell>
        <mxCell id="Q0xsEToSXDLaV0YUPqp3-25" style="edgeStyle=orthogonalEdgeStyle;rounded=0;orthogonalLoop=1;jettySize=auto;html=1;exitX=0;exitY=0.5;exitDx=0;exitDy=0;entryX=1;entryY=0.5;entryDx=0;entryDy=0;" edge="1" parent="1" source="Q0xsEToSXDLaV0YUPqp3-20" target="Q0xsEToSXDLaV0YUPqp3-22">
          <mxGeometry relative="1" as="geometry" />
        </mxCell>
        <mxCell id="Q0xsEToSXDLaV0YUPqp3-29" value="sim" style="edgeLabel;html=1;align=center;verticalAlign=middle;resizable=0;points=[];" vertex="1" connectable="0" parent="Q0xsEToSXDLaV0YUPqp3-25">
          <mxGeometry x="-0.0679" relative="1" as="geometry">
            <mxPoint as="offset" />
          </mxGeometry>
        </mxCell>
        <mxCell id="Q0xsEToSXDLaV0YUPqp3-33" value="" style="edgeStyle=orthogonalEdgeStyle;rounded=0;orthogonalLoop=1;jettySize=auto;html=1;" edge="1" parent="1" source="Q0xsEToSXDLaV0YUPqp3-20" target="Q0xsEToSXDLaV0YUPqp3-32">
          <mxGeometry relative="1" as="geometry" />
        </mxCell>
        <mxCell id="Q0xsEToSXDLaV0YUPqp3-34" value="não" style="edgeLabel;html=1;align=center;verticalAlign=middle;resizable=0;points=[];" vertex="1" connectable="0" parent="Q0xsEToSXDLaV0YUPqp3-33">
          <mxGeometry x="-0.0356" y="-1" relative="1" as="geometry">
            <mxPoint as="offset" />
          </mxGeometry>
        </mxCell>
        <mxCell id="Q0xsEToSXDLaV0YUPqp3-20" value="validação" style="rhombus;whiteSpace=wrap;html=1;" vertex="1" parent="1">
          <mxGeometry x="540" y="270" width="80" height="80" as="geometry" />
        </mxCell>
        <mxCell id="Q0xsEToSXDLaV0YUPqp3-31" value="" style="edgeStyle=orthogonalEdgeStyle;rounded=0;orthogonalLoop=1;jettySize=auto;html=1;" edge="1" parent="1" source="Q0xsEToSXDLaV0YUPqp3-22" target="Q0xsEToSXDLaV0YUPqp3-30">
          <mxGeometry relative="1" as="geometry" />
        </mxCell>
        <mxCell id="Q0xsEToSXDLaV0YUPqp3-22" value="cadastrar" style="whiteSpace=wrap;html=1;" vertex="1" parent="1">
          <mxGeometry x="340" y="320" width="120" height="60" as="geometry" />
        </mxCell>
        <mxCell id="Q0xsEToSXDLaV0YUPqp3-30" value="alerta de cadastro realizado opção para escolher se deseja cadastrar mais 1 ou ver a listagem de ativos&amp;nbsp;&amp;nbsp;" style="whiteSpace=wrap;html=1;" vertex="1" parent="1">
          <mxGeometry x="160" y="305" width="120" height="90" as="geometry" />
        </mxCell>
        <mxCell id="Q0xsEToSXDLaV0YUPqp3-32" value="alerta informando para preencher todos os campos" style="whiteSpace=wrap;html=1;" vertex="1" parent="1">
          <mxGeometry x="690" y="320" width="120" height="60" as="geometry" />
        </mxCell>
      </root>
    </mxGraphModel>
  </diagram>
</mxfile>
